<?xml version="1.0" standalone="no"?>
<!DOCTYPE svg PUBLIC "-//W3C//DTD SVG 20010904//EN"
 "http://www.w3.org/TR/2001/REC-SVG-20010904/DTD/svg10.dtd">
<svg version="1.0" xmlns="http://www.w3.org/2000/svg"
 width="1000.000000pt" height="1000.000000pt" viewBox="0 0 1000.000000 1000.000000"
 preserveAspectRatio="xMidYMid meet">

<g transform="translate(0.000000,1000.000000) scale(0.100000,-0.100000)"
fill="#000000" stroke="none">
<path d="M0 5000 l0 -5000 5000 0 5000 0 0 5000 0 5000 -5000 0 -5000 0 0
-5000z m744 2693 c8 -38 63 -286 121 -553 58 -267 109 -494 112 -505 4 -12 67
210 157 550 l152 570 201 3 201 2 143 -575 c79 -316 146 -575 149 -575 3 0 62
258 131 573 l125 572 167 3 c154 2 167 1 167 -15 -1 -10 -90 -385 -199 -833
l-198 -815 -180 -3 -180 -2 -46 172 c-26 95 -99 372 -164 616 -65 243 -120
442 -123 442 -3 0 -77 -271 -164 -603 -88 -331 -161 -608 -164 -614 -3 -10
-50 -13 -188 -13 -101 0 -184 3 -184 6 0 3 -88 373 -195 823 -107 449 -195
822 -195 829 0 9 42 12 169 12 l169 0 16 -67z m3246 -73 l0 -140 -450 0 -450
0 0 -185 0 -185 415 0 415 0 0 -145 0 -145 -415 0 -415 0 0 -225 0 -225 465 0
465 0 0 -140 0 -140 -635 0 -635 0 0 835 0 835 620 0 620 0 0 -140z m2047
-690 c182 -454 332 -828 332 -832 1 -5 -81 -8 -182 -8 l-182 0 -24 63 c-13 34
-46 119 -73 190 l-50 127 -332 0 -333 0 -69 -190 -68 -190 -179 0 c-139 0
-178 3 -174 13 69 179 641 1644 644 1650 2 4 84 6 181 5 l177 -3 332 -825z
m1533 805 c87 -19 174 -63 218 -108 51 -53 100 -145 116 -217 40 -176 -3 -340
-119 -449 -64 -61 -133 -96 -231 -119 l-75 -18 48 -31 c123 -80 175 -144 372
-457 72 -114 136 -217 142 -227 9 -18 2 -19 -190 -19 l-200 0 -167 248 c-173
257 -235 342 -276 379 -43 40 -107 60 -215 67 l-103 7 0 -351 0 -350 -170 0
-170 0 0 836 0 836 473 -5 c397 -4 484 -7 547 -22z m1908 -117 l3 -138 -453
-2 -453 -3 -3 -182 -2 -183 420 0 420 0 0 -145 0 -145 -420 0 -420 0 0 -225 0
-225 470 0 470 0 0 -140 0 -140 -635 0 -635 0 0 835 0 835 618 -2 617 -3 3
-137z m-1328 -2008 c194 -40 351 -151 432 -306 46 -88 72 -173 55 -179 -18 -6
-331 -65 -332 -62 -1 1 -14 28 -29 59 -56 117 -165 193 -299 207 -220 24 -410
-67 -496 -238 -48 -94 -64 -177 -65 -331 -1 -226 46 -374 153 -481 157 -157
394 -178 636 -57 119 60 115 54 115 179 l0 109 -200 0 -200 0 0 145 0 145 375
0 375 0 0 -345 0 -345 -52 -41 c-105 -83 -320 -174 -485 -205 -123 -23 -365
-15 -478 15 -102 27 -223 88 -302 151 -299 239 -392 785 -198 1170 110 220
303 367 545 415 104 21 338 18 450 -5z m-7268 -347 l3 -338 343 -3 342 -2 0
340 0 340 175 0 175 0 -2 -862 -3 -863 -172 -3 -173 -2 0 380 0 380 -345 0
-345 0 0 -380 0 -380 -170 0 -170 0 0 865 0 865 170 0 170 0 2 -337z m1736
-525 l-3 -863 -172 -3 -173 -2 0 865 0 865 175 0 175 0 -2 -862z m1410 839
c85 -23 136 -50 194 -105 176 -164 195 -473 41 -660 -63 -77 -161 -130 -312
-168 l-34 -9 54 -36 c71 -47 147 -124 205 -204 58 -82 324 -506 324 -517 0 -4
-91 -8 -203 -8 l-203 0 -194 288 c-211 312 -285 399 -358 420 -23 7 -87 16
-142 19 l-100 6 0 -367 0 -366 -172 2 -173 3 -3 863 -2 863 507 -4 c434 -3
517 -6 571 -20z m1002 -842 l0 -865 -170 0 -170 0 0 865 0 865 170 0 170 0 0
-865z m1035 293 l350 -573 3 573 2 572 160 0 160 0 0 -865 0 -865 -168 0
c-109 0 -172 4 -179 11 -6 6 -163 258 -350 559 l-338 548 -5 -557 -5 -556
-160 0 -160 0 -3 863 -2 862 172 0 173 0 350 -572z m3325 356 c0 -176 -7 -290
-40 -625 -22 -226 -40 -417 -40 -425 0 -11 -19 -14 -94 -14 l-94 0 -6 48 c-3
26 -24 232 -46 458 -30 309 -40 457 -40 593 l0 181 180 0 180 0 0 -216z m-10
-1344 l0 -170 -165 0 -165 0 0 170 0 170 165 0 165 0 0 -170z"/>
<path d="M5512 7339 c-40 -104 -212 -580 -212 -584 0 -3 102 -5 226 -5 211 0
226 1 219 18 -3 9 -54 145 -112 302 -58 157 -107 287 -109 289 -2 2 -7 -7 -12
-20z"/>
<path d="M6890 7264 l0 -217 253 6 c142 3 269 10 290 17 21 6 53 25 72 41 99
88 81 280 -32 334 -44 22 -186 33 -430 34 l-153 1 0 -216z"/>
<path d="M3300 5090 l0 -220 183 0 c205 1 376 13 409 31 79 40 127 137 113
227 -9 57 -18 78 -58 120 -53 55 -97 62 -389 62 l-258 0 0 -220z"/>
</g>
</svg>
